<svg width="38" height="32" viewBox="0 0 38 32" fill="none" xmlns="http://www.w3.org/2000/svg">
<path d="M0.390625 24.5C0.390625 24.5256 0.391608 24.5512 0.393571 24.5767C0.486973 25.7909 0.92738 27.5963 1.97857 29.1283C3.05641 30.6991 4.79938 32 7.39062 32H7.44207H7.49342H7.54468H7.59586H7.64695H7.69796H7.74888H7.79971H7.85045H7.90112H7.95169H8.00218H8.05259H8.10292H8.15316H8.20331H8.25339H8.30338H8.35329H8.40312H8.45286H8.50253H8.55211H8.60162H8.65104H8.70038H8.74965H8.79884H8.84794H8.89697H8.94592H8.9948H9.04359H9.09231H9.14095H9.18952H9.23801H9.28642H9.33476H9.38303H9.43122H9.47933H9.52737H9.57534H9.62324H9.67106H9.71881H9.76649H9.81409H9.86163H9.90909H9.95648H10.0038H10.0511H10.0982H10.1454H10.1924H10.2394H10.2863H10.3331H10.3799H10.4266H10.4732H10.5198H10.5663H10.6127H10.6591H10.7054H10.7517H10.7978H10.844H10.89H10.936H10.9819H11.0278H11.0736H11.1193H11.165H11.2106H11.2561H11.3016H11.3471H11.3924H11.4377H11.483H11.5282H11.5733H11.6184H11.6634H11.7084H11.7533H11.7981H11.8429H11.8876H11.9323H11.9769H12.0215H12.066H12.1105H12.1549H12.1992H12.2435H12.2878H12.332H12.3761H12.4202H12.4642H12.5082H12.5521H12.596H12.6398H12.6836H12.7273H12.771H12.8146H12.8582H12.9018H12.9452H12.9887H13.0321H13.0754H13.1187H13.162H13.2052H13.2483H13.2914H13.3345H13.3775H13.4205H13.4635H13.5063H13.5492H13.592H13.6348H13.6775H13.7202H13.7628H13.8054H13.848H13.8905H13.933H13.9754H14.0178H14.0602H14.1025H14.1448H14.187H14.2292H14.2714H14.3135H14.3556H14.3977H14.4397H14.4817H14.5236H14.5656H14.6074H14.6493H14.6911H14.7329H14.7746H14.8164H14.858H14.8997H14.9413H14.9829H15.0245H15.066H15.1075H15.149H15.1904H15.2318H15.2732H15.3145H15.3558H15.3971H15.4384H15.4796H15.5209H15.562H15.6032H15.6443H15.6854H15.7265H15.7676H15.8086H15.8496H15.8906H15.9316H15.9725H16.0134H16.0543H16.0952H16.136H16.1769H16.2177H16.2585H16.2992H16.34H16.3807H16.4214H16.4621H16.5028H16.5434H16.584H16.6247H16.6653H16.7058H16.7464H16.787H16.8275H16.868H16.9085H16.949H16.9895H17.0299H17.0704H17.1108H17.1512H17.1916H17.232H17.2724H17.3128H17.3531H17.3935H17.4338H17.4741H17.5145H17.5548H17.5951H17.6353H17.6756H17.7159H17.7562H17.7964H17.8367H17.8769H17.9171H17.9574H17.9976H18.0378H18.078H18.1182H18.1584H18.1986H18.2388H18.279H18.3192H18.3594H18.3996H18.4397H18.4799H18.5201H18.5603H18.6004H18.6406H18.6808H18.721H18.7612H18.8013H18.8415H18.8817H18.9219H18.9621H19.0022H19.0424H19.0826H19.1228H19.163H19.2032H19.2435H19.2837H19.3239H19.3641H19.4044H19.4446H19.4848H19.5251H19.5654H19.6056H19.6459H19.6862H19.7265H19.7668H19.8071H19.8474H19.8878H19.9281H19.9685H20.0089H20.0492H20.0896H20.13H20.1704H20.2109H20.2513H20.2918H20.3323H20.3727H20.4132H20.4538H20.4943H20.5348H20.5754H20.616H20.6566H20.6972H20.7378H20.7785H20.8192H20.8598H20.9005H20.9413H20.982H21.0228H21.0636H21.1044H21.1452H21.1861H21.2269H21.2678H21.3087H21.3497H21.3906H21.4316H21.4726H21.5137H21.5547H21.5958H21.6369H21.678H21.7192H21.7604H21.8016H21.8428H21.8841H21.9254H21.9667H22.0081H22.0495H22.0909H22.1323H22.1738H22.2153H22.2568H22.2983H22.3399H22.3816H22.4232H22.4649H22.5066H22.5484H22.5901H22.632H22.6738H22.7157H22.7576H22.7996H22.8415H22.8836H22.9256H22.9677H23.0099H23.052H23.0942H23.1365H23.1788H23.2211H23.2634H23.3058H23.3483H23.3908H23.4333H23.4758H23.5184H23.5611H23.6038H23.6465H23.6892H23.7321H23.7749H23.8178H23.8607H23.9037H23.9467H23.9898H24.0329H24.0761H24.1193H24.1625H24.2058H24.2492H24.2926H24.336H24.3795H24.423H24.4666H24.5102H24.5539H24.5976H24.6414H24.6853H24.7291H24.7731H24.817H24.8611H24.9052H24.9493H24.9935H25.0377H25.082H25.1264H25.1708H25.2152H25.2597H25.3043H25.3489H25.3936H25.4383H25.4831H25.528H25.5729H25.6178H25.6629H25.7079H25.7531H25.7983H25.8435H25.8888H25.9342H25.9796H26.0251H26.0707H26.1163H26.1619H26.2077H26.2535H26.2993H26.3453H26.3912H26.4373H26.4834H26.5296H26.5758H26.6221H26.6685H26.7149H26.7615H26.808H26.8547H26.9014H26.9481H26.995H27.0419H27.0889H27.1359H27.183H27.2302H27.2774H27.3248H27.3722H27.4196H27.4672H27.5148H27.5624H27.6102H27.658H27.7059H27.7539H27.8019H27.85H27.8982H27.9465H27.9948H28.0432H28.0917H28.1403H28.1889H28.2377H28.2865H28.3353H28.3843H28.4333H28.4824H28.5316H28.5809H28.6302H28.6796H28.7291H28.7787H28.8284H28.8781H28.928H28.9779H29.0279H29.0779H29.1281H29.1783H29.2287H29.2791H29.3296H29.3801H29.4308H29.4815H29.5324H29.5833H29.6343H29.6854H29.7366H29.7878H29.8392H29.8906C29.9144 32 29.9382 31.9992 29.9619 31.9975C31.2891 31.9027 33.2417 31.3731 34.8862 30.0716C36.5712 28.7381 37.8906 26.6218 37.8906 23.5V14H35.8906V23.5C35.8906 25.9782 34.8767 27.5286 33.645 28.5034C32.3871 29.499 30.86 29.9212 29.8533 30H29.8392H29.7878H29.7366H29.6854H29.6343H29.5833H29.5324H29.4815H29.4308H29.3801H29.3296H29.2791H29.2287H29.1783H29.1281H29.0779H29.0279H28.9779H28.928H28.8781H28.8284H28.7787H28.7291H28.6796H28.6302H28.5809H28.5316H28.4824H28.4333H28.3843H28.3353H28.2865H28.2377H28.1889H28.1403H28.0917H28.0432H27.9948H27.9465H27.8982H27.85H27.8019H27.7539H27.7059H27.658H27.6102H27.5624H27.5148H27.4672H27.4196H27.3722H27.3248H27.2774H27.2302H27.183H27.1359H27.0889H27.0419H26.995H26.9481H26.9014H26.8547H26.808H26.7615H26.7149H26.6685H26.6221H26.5758H26.5296H26.4834H26.4373H26.3912H26.3453H26.2993H26.2535H26.2077H26.1619H26.1163H26.0707H26.0251H25.9796H25.9342H25.8888H25.8435H25.7983H25.7531H25.7079H25.6629H25.6178H25.5729H25.528H25.4831H25.4383H25.3936H25.3489H25.3043H25.2597H25.2152H25.1708H25.1264H25.082H25.0377H24.9935H24.9493H24.9052H24.8611H24.817H24.7731H24.7291H24.6853H24.6414H24.5976H24.5539H24.5102H24.4666H24.423H24.3795H24.336H24.2926H24.2492H24.2058H24.1625H24.1193H24.0761H24.0329H23.9898H23.9467H23.9037H23.8607H23.8178H23.7749H23.7321H23.6892H23.6465H23.6038H23.5611H23.5184H23.4758H23.4333H23.3908H23.3483H23.3058H23.2634H23.2211H23.1788H23.1365H23.0942H23.052H23.0099H22.9677H22.9256H22.8836H22.8415H22.7996H22.7576H22.7157H22.6738H22.632H22.5901H22.5484H22.5066H22.4649H22.4232H22.3816H22.3399H22.2983H22.2568H22.2153H22.1738H22.1323H22.0909H22.0495H22.0081H21.9667H21.9254H21.8841H21.8428H21.8016H21.7604H21.7192H21.678H21.6369H21.5958H21.5547H21.5137H21.4726H21.4316H21.3906H21.3497H21.3087H21.2678H21.2269H21.1861H21.1452H21.1044H21.0636H21.0228H20.982H20.9413H20.9005H20.8598H20.8192H20.7785H20.7378H20.6972H20.6566H20.616H20.5754H20.5348H20.4943H20.4538H20.4132H20.3727H20.3323H20.2918H20.2513H20.2109H20.1704H20.13H20.0896H20.0492H20.0089H19.9685H19.9281H19.8878H19.8474H19.8071H19.7668H19.7265H19.6862H19.6459H19.6056H19.5654H19.5251H19.4848H19.4446H19.4044H19.3641H19.3239H19.2837H19.2435H19.2032H19.163H19.1228H19.0826H19.0424H19.0022H18.9621H18.9219H18.8817H18.8415H18.8013H18.7612H18.721H18.6808H18.6406H18.6004H18.5603H18.5201H18.4799H18.4397H18.3996H18.3594H18.3192H18.279H18.2388H18.1986H18.1584H18.1182H18.078H18.0378H17.9976H17.9574H17.9171H17.8769H17.8367H17.7964H17.7562H17.7159H17.6756H17.6353H17.5951H17.5548H17.5145H17.4741H17.4338H17.3935H17.3531H17.3128H17.2724H17.232H17.1916H17.1512H17.1108H17.0704H17.0299H16.9895H16.949H16.9085H16.868H16.8275H16.787H16.7464H16.7058H16.6653H16.6247H16.584H16.5434H16.5028H16.4621H16.4214H16.3807H16.34H16.2992H16.2585H16.2177H16.1769H16.136H16.0952H16.0543H16.0134H15.9725H15.9316H15.8906H15.8496H15.8086H15.7676H15.7265H15.6854H15.6443H15.6032H15.562H15.5209H15.4796H15.4384H15.3971H15.3558H15.3145H15.2732H15.2318H15.1904H15.149H15.1075H15.066H15.0245H14.9829H14.9413H14.8997H14.858H14.8164H14.7746H14.7329H14.6911H14.6493H14.6074H14.5656H14.5236H14.4817H14.4397H14.3977H14.3556H14.3135H14.2714H14.2292H14.187H14.1448H14.1025H14.0602H14.0178H13.9754H13.933H13.8905H13.848H13.8054H13.7628H13.7202H13.6775H13.6348H13.592H13.5492H13.5063H13.4635H13.4205H13.3775H13.3345H13.2914H13.2483H13.2052H13.162H13.1187H13.0754H13.0321H12.9887H12.9452H12.9018H12.8582H12.8146H12.771H12.7273H12.6836H12.6398H12.596H12.5521H12.5082H12.4642H12.4202H12.3761H12.332H12.2878H12.2435H12.1992H12.1549H12.1105H12.066H12.0215H11.9769H11.9323H11.8876H11.8429H11.7981H11.7533H11.7084H11.6634H11.6184H11.5733H11.5282H11.483H11.4377H11.3924H11.3471H11.3016H11.2561H11.2106H11.165H11.1193H11.0736H11.0278H10.9819H10.936H10.89H10.844H10.7978H10.7517H10.7054H10.6591H10.6127H10.5663H10.5198H10.4732H10.4266H10.3799H10.3331H10.2863H10.2394H10.1924H10.1454H10.0982H10.0511H10.0038H9.95648H9.90909H9.86163H9.81409H9.76649H9.71881H9.67106H9.62324H9.57534H9.52737H9.47933H9.43122H9.38303H9.33476H9.28642H9.23801H9.18952H9.14095H9.09231H9.04359H8.9948H8.94592H8.89697H8.84794H8.79884H8.74965H8.70038H8.65104H8.60162H8.55211H8.50253H8.45286H8.40312H8.35329H8.30338H8.25339H8.20331H8.15316H8.10292H8.05259H8.00218H7.95169H7.90112H7.85045H7.79971H7.74888H7.69796H7.64695H7.59586H7.54468H7.49342H7.44207H7.39062C5.58187 30 4.40817 29.1342 3.62768 27.9967C2.83084 26.8354 2.4702 25.4126 2.39062 24.46V14H0.390625V24.5ZM26.8906 1H10.8906C7.57692 1 4.89062 3.68629 4.89062 7V20C4.89062 23.3137 7.57692 26 10.8906 26H10.9272H10.9637H11.0002H11.0366H11.0729H11.1092H11.1454H11.1815H11.2176H11.2536H11.2896H11.3255H11.3614H11.3971H11.4329H11.4685H11.5041H11.5397H11.5752H11.6106H11.646H11.6813H11.7166H11.7518H11.7869H11.822H11.857H11.892H11.9269H11.9618H11.9966H12.0314H12.0661H12.1007H12.1353H12.1698H12.2043H12.2387H12.2731H12.3074H12.3417H12.3759H12.4101H12.4442H12.4783H12.5123H12.5462H12.5801H12.614H12.6478H12.6815H12.7152H12.7489H12.7825H12.816H12.8495H12.883H12.9164H12.9498H12.9831H13.0163H13.0495H13.0827H13.1158H13.1489H13.1819H13.2149H13.2478H13.2807H13.3135H13.3463H13.3791H13.4118H13.4444H13.477H13.5096H13.5421H13.5746H13.607H13.6394H13.6718H13.7041H13.7364H13.7686H13.8008H13.8329H13.865H13.897H13.9291H13.961H13.993H14.0248H14.0567H14.0885H14.1203H14.152H14.1837H14.2153H14.247H14.2785H14.3101H14.3416H14.373H14.4045H14.4358H14.4672H14.4985H14.5298H14.561H14.5922H14.6234H14.6545H14.6856H14.7167H14.7477H14.7787H14.8097H14.8406H14.8715H14.9023H14.9331H14.9639H14.9947H15.0254H15.0561H15.0868H15.1174H15.148H15.1785H15.2091H15.2396H15.2701H15.3005H15.3309H15.3613H15.3916H15.422H15.4523H15.4825H15.5128H15.543H15.5731H15.6033H15.6334H15.6635H15.6936H15.7236H15.7536H15.7836H15.8136H15.8435H15.8734H15.9033H15.9332H15.963H15.9928H16.0226H16.0523H16.0821H16.1118H16.1415H16.1711H16.2008H16.2304H16.26H16.2896H16.3191H16.3487H16.3782H16.4077H16.4371H16.4666H16.496H16.5254H16.5548H16.5841H16.6135H16.6428H16.6721H16.7014H16.7307H16.7599H16.7892H16.8184H16.8476H16.8768H16.9059H16.9351H16.9642H16.9933H17.0224H17.0515H17.0805H17.1096H17.1386H17.1676H17.1966H17.2256H17.2546H17.2836H17.3125H17.3414H17.3704H17.3993H17.4282H17.4571H17.4859H17.5148H17.5436H17.5725H17.6013H17.6301H17.6589H17.6877H17.7165H17.7452H17.774H17.8028H17.8315H17.8602H17.889H17.9177H17.9464H17.9751H18.0038H18.0324H18.0611H18.0898H18.1185H18.1471H18.1758H18.2044H18.233H18.2617H18.2903H18.3189H18.3475H18.3761H18.4047H18.4334H18.4619H18.4905H18.5191H18.5477H18.5763H18.6049H18.6335H18.6621H18.6906H18.7192H18.7478H18.7763H18.8049H18.8335H18.8621H18.8906H18.9192H18.9478H18.9763H19.0049H19.0335H19.062H19.0906H19.1192H19.1478H19.1764H19.2049H19.2335H19.2621H19.2907H19.3193H19.3479H19.3765H19.4051H19.4337H19.4623H19.491H19.5196H19.5482H19.5769H19.6055H19.6341H19.6628H19.6915H19.7201H19.7488H19.7775H19.8062H19.8349H19.8636H19.8923H19.921H19.9498H19.9785H20.0072H20.036H20.0648H20.0936H20.1224H20.1512H20.18H20.2088H20.2376H20.2665H20.2953H20.3242H20.3531H20.382H20.4109H20.4398H20.4687H20.4977H20.5266H20.5556H20.5846H20.6136H20.6426H20.6717H20.7007H20.7298H20.7589H20.788H20.8171H20.8462H20.8753H20.9045H20.9337H20.9629H20.9921H21.0213H21.0506H21.0798H21.1091H21.1384H21.1678H21.1971H21.2265H21.2559H21.2853H21.3147H21.3441H21.3736H21.4031H21.4326H21.4621H21.4917H21.5212H21.5508H21.5805H21.6101H21.6398H21.6695H21.6992H21.7289H21.7587H21.7884H21.8183H21.8481H21.8779H21.9078H21.9377H21.9677H21.9976H22.0276H22.0576H22.0877H22.1177H22.1478H22.178H22.2081H22.2383H22.2685H22.2987H22.329H22.3593H22.3896H22.42H22.4503H22.4808H22.5112H22.5417H22.5722H22.6027H22.6333H22.6639H22.6945H22.7251H22.7558H22.7866H22.8173H22.8481H22.8789H22.9098H22.9407H22.9716H23.0026H23.0335H23.0646H23.0956H23.1267H23.1579H23.189H23.2202H23.2515H23.2827H23.3141H23.3454H23.3768H23.4082H23.4397H23.4712H23.5027H23.5343H23.5659H23.5976H23.6292H23.661H23.6927H23.7246H23.7564H23.7883H23.8202H23.8522H23.8842H23.9163H23.9484H23.9805H24.0127H24.0449H24.0772H24.1095H24.1418H24.1742H24.2066H24.2391H24.2716H24.3042H24.3368H24.3695H24.4022H24.4349H24.4677H24.5006H24.5334H24.5664H24.5993H24.6324H24.6654H24.6986H24.7317H24.7649H24.7982H24.8315H24.8649H24.8983H24.9317H24.9652H24.9988H25.0324H25.066H25.0997H25.1335H25.1673H25.2011H25.235H25.269H25.303H25.337H25.3712H25.4053H25.4395H25.4738H25.5081H25.5425H25.5769H25.6114H25.6459H25.6805H25.7152H25.7499H25.7846H25.8194H25.8543H25.8892H25.9242H25.9592H25.9943H26.0295H26.0647H26.0999H26.1353H26.1706H26.2061H26.2416H26.2771H26.3127H26.3484H26.3841H26.4199H26.4557H26.4916H26.5276H26.5636H26.5997H26.6359H26.6721H26.7083H26.7447H26.7811H26.8175H26.854H26.8906C30.2043 26 32.8906 23.3137 32.8906 20V7C32.8906 3.68629 30.2043 1 26.8906 1Z" fill="#ffffff80" />
</svg>